<svg width="78" height="26" viewBox="0 0 78 26" fill="none" xmlns="http://www.w3.org/2000/svg">
<path d="M0 3.33082C0.129015 4.2871 0.0644658 5.28121 0.433231 6.19065C0.962102 7.49513 1.60514 8.81597 2.55018 9.99432C8.47311 17.3792 17.161 22.8033 28.8237 25.0444C40.7249 27.3314 51.9712 25.5126 61.3442 19.596C66.0379 16.6331 69.6898 13.0858 72.4239 9.09829C72.9183 8.37716 73.4386 7.66458 74.275 6.48595C75.3263 8.13488 76.1282 9.39268 76.93 10.6504C77.1897 10.6115 77.4493 10.5725 77.7089 10.5335C77.811 10.1441 78.0406 9.74705 77.9938 9.3664C77.7492 7.37693 77.4589 5.38967 77.1352 3.40552C76.9271 2.1301 76.6978 0.757895 74.7262 0.203552C72.6068 -0.392361 70.8263 0.413383 69.4563 1.41554C67.573 2.79324 65.8662 4.29605 64.2328 5.82213C63.8959 6.13685 64.2141 6.78929 64.2303 7.28609C64.9427 7.27125 65.8623 7.44841 66.3292 7.20584C67.7803 6.45197 69.0597 5.53885 70.4343 4.66945C70.5359 4.83023 70.6619 4.93116 70.6302 4.99334C64.2894 17.4453 51.2209 24.8586 32.6303 23.5857C31.7251 23.5237 30.8118 23.3943 29.9455 23.2023C17.4567 20.4338 8.23369 15.0192 2.58984 6.77474C1.83999 5.67942 1.54222 4.43509 1.03514 3.25974C0.690118 3.28342 0.3451 3.30715 0 3.33082Z" fill="white"/>
</svg>
