<svg width="173" height="46" viewBox="0 0 173 46" fill="none" xmlns="http://www.w3.org/2000/svg">
<rect x="-20" width="193" height="46" rx="23" fill="#827CA9"/>
<path d="M2.35 29V16.4H3.61V29H2.35ZM10.6341 21.26H8.48308L8.47408 29H7.21408L7.22308 21.26H5.59408V20H7.22308L7.21408 17.174H8.47408L8.48308 20H10.6341V21.26ZM20.3354 29H19.0394L16.0244 20H17.2574L19.7054 27.254L22.1354 20H23.4674L25.8974 27.254L28.3274 20H29.5694L26.5544 29H25.2494L22.7834 21.674L20.3354 29ZM38.1128 20H39.3728V29H38.1128L38.0678 27.326C37.7738 27.896 37.3628 28.358 36.8348 28.712C36.3068 29.06 35.6768 29.234 34.9448 29.234C34.2848 29.234 33.6668 29.111 33.0908 28.865C32.5148 28.613 32.0078 28.268 31.5698 27.83C31.1318 27.392 30.7898 26.885 30.5438 26.309C30.2978 25.733 30.1748 25.115 30.1748 24.455C30.1748 23.807 30.2948 23.198 30.5348 22.628C30.7808 22.058 31.1168 21.557 31.5428 21.125C31.9748 20.693 32.4728 20.357 33.0368 20.117C33.6068 19.871 34.2158 19.748 34.8638 19.748C35.6138 19.748 36.2678 19.928 36.8258 20.288C37.3838 20.642 37.8278 21.107 38.1578 21.683L38.1128 20ZM34.9178 28.01C35.5598 28.01 36.1118 27.854 36.5738 27.542C37.0358 27.224 37.3898 26.798 37.6358 26.264C37.8878 25.73 38.0138 25.142 38.0138 24.5C38.0138 23.84 37.8878 23.246 37.6358 22.718C37.3838 22.184 37.0268 21.761 36.5648 21.449C36.1028 21.137 35.5538 20.981 34.9178 20.981C34.2818 20.981 33.6998 21.14 33.1718 21.458C32.6498 21.77 32.2328 22.193 31.9208 22.727C31.6148 23.261 31.4618 23.852 31.4618 24.5C31.4618 25.154 31.6208 25.748 31.9388 26.282C32.2568 26.81 32.6768 27.23 33.1988 27.542C33.7268 27.854 34.2998 28.01 34.9178 28.01ZM43.9548 29.171C43.4628 29.159 42.9828 29.069 42.5148 28.901C42.0468 28.733 41.6388 28.505 41.2908 28.217C40.9428 27.929 40.6938 27.602 40.5438 27.236L41.6328 26.768C41.7288 27.002 41.9058 27.218 42.1638 27.416C42.4278 27.608 42.7278 27.764 43.0638 27.884C43.3998 27.998 43.7328 28.055 44.0628 28.055C44.4288 28.055 44.7708 27.995 45.0888 27.875C45.4068 27.755 45.6648 27.584 45.8628 27.362C46.0668 27.134 46.1688 26.867 46.1688 26.561C46.1688 26.231 46.0608 25.973 45.8448 25.787C45.6288 25.595 45.3558 25.445 45.0258 25.337C44.6958 25.223 44.3568 25.115 44.0088 25.013C43.3728 24.839 42.8118 24.647 42.3258 24.437C41.8398 24.227 41.4588 23.96 41.1828 23.636C40.9128 23.306 40.7778 22.883 40.7778 22.367C40.7778 21.821 40.9308 21.35 41.2368 20.954C41.5488 20.552 41.9538 20.243 42.4518 20.027C42.9558 19.805 43.4928 19.694 44.0628 19.694C44.7948 19.694 45.4608 19.853 46.0608 20.171C46.6668 20.489 47.1048 20.912 47.3748 21.44L46.3578 22.043C46.2498 21.797 46.0788 21.584 45.8448 21.404C45.6108 21.224 45.3438 21.083 45.0438 20.981C44.7498 20.879 44.4498 20.825 44.1438 20.819C43.7598 20.813 43.4028 20.87 43.0728 20.99C42.7428 21.104 42.4758 21.275 42.2718 21.503C42.0738 21.731 41.9748 22.01 41.9748 22.34C41.9748 22.67 42.0738 22.922 42.2718 23.096C42.4698 23.264 42.7368 23.402 43.0728 23.51C43.4148 23.612 43.7988 23.732 44.2248 23.87C44.7708 24.044 45.2838 24.242 45.7638 24.464C46.2438 24.686 46.6308 24.962 46.9248 25.292C47.2188 25.622 47.3628 26.039 47.3568 26.543C47.3568 27.083 47.1948 27.554 46.8708 27.956C46.5468 28.358 46.1268 28.667 45.6108 28.883C45.0948 29.093 44.5428 29.189 43.9548 29.171ZM60.6303 20H61.8903V29H60.6303L60.5853 27.326C60.2913 27.896 59.8803 28.358 59.3523 28.712C58.8243 29.06 58.1943 29.234 57.4623 29.234C56.8023 29.234 56.1843 29.111 55.6083 28.865C55.0323 28.613 54.5253 28.268 54.0873 27.83C53.6493 27.392 53.3073 26.885 53.0613 26.309C52.8153 25.733 52.6923 25.115 52.6923 24.455C52.6923 23.807 52.8123 23.198 53.0523 22.628C53.2983 22.058 53.6343 21.557 54.0603 21.125C54.4923 20.693 54.9903 20.357 55.5543 20.117C56.1243 19.871 56.7333 19.748 57.3813 19.748C58.1313 19.748 58.7853 19.928 59.3433 20.288C59.9013 20.642 60.3453 21.107 60.6753 21.683L60.6303 20ZM57.4353 28.01C58.0773 28.01 58.6293 27.854 59.0913 27.542C59.5533 27.224 59.9073 26.798 60.1533 26.264C60.4053 25.73 60.5313 25.142 60.5313 24.5C60.5313 23.84 60.4053 23.246 60.1533 22.718C59.9013 22.184 59.5443 21.761 59.0823 21.449C58.6203 21.137 58.0713 20.981 57.4353 20.981C56.7993 20.981 56.2173 21.14 55.6893 21.458C55.1673 21.77 54.7503 22.193 54.4383 22.727C54.1323 23.261 53.9793 23.852 53.9793 24.5C53.9793 25.154 54.1383 25.748 54.4563 26.282C54.7743 26.81 55.1943 27.23 55.7163 27.542C56.2443 27.854 56.8173 28.01 57.4353 28.01ZM75.8635 23.429V29H74.6035V23.681C74.6035 23.189 74.4835 22.742 74.2435 22.34C74.0035 21.938 73.6825 21.617 73.2805 21.377C72.8785 21.137 72.4315 21.017 71.9395 21.017C71.4535 21.017 71.0065 21.137 70.5985 21.377C70.1965 21.617 69.8755 21.938 69.6355 22.34C69.3955 22.742 69.2755 23.189 69.2755 23.681V29H68.0155V20H69.2755V21.242C69.5935 20.786 70.0075 20.423 70.5175 20.153C71.0275 19.883 71.5825 19.748 72.1825 19.748C72.8605 19.748 73.4785 19.913 74.0365 20.243C74.5945 20.573 75.0385 21.017 75.3685 21.575C75.6985 22.133 75.8635 22.751 75.8635 23.429ZM77.6659 20H78.9259V29H77.6659V20ZM78.3049 18.425C78.1009 18.425 77.9269 18.359 77.7829 18.227C77.6449 18.089 77.5759 17.918 77.5759 17.714C77.5759 17.51 77.6449 17.342 77.7829 17.21C77.9269 17.072 78.1009 17.003 78.3049 17.003C78.5029 17.003 78.6709 17.072 78.8089 17.21C78.9529 17.342 79.0249 17.51 79.0249 17.714C79.0249 17.918 78.9559 18.089 78.8179 18.227C78.6799 18.359 78.5089 18.425 78.3049 18.425ZM88.1608 20H89.4208V29.333C89.4208 29.909 89.2948 30.449 89.0428 30.953C88.7968 31.457 88.4608 31.898 88.0348 32.276C87.6148 32.66 87.1348 32.96 86.5948 33.176C86.0548 33.392 85.4938 33.5 84.9118 33.5C84.2878 33.5 83.6848 33.356 83.1028 33.068C82.5208 32.786 82.0138 32.408 81.5818 31.934C81.1558 31.46 80.8528 30.935 80.6728 30.359L81.8338 29.828C81.9478 30.278 82.1608 30.683 82.4728 31.043C82.7908 31.409 83.1628 31.697 83.5888 31.907C84.0208 32.123 84.4618 32.231 84.9118 32.231C85.3258 32.231 85.7248 32.153 86.1088 31.997C86.4988 31.847 86.8468 31.64 87.1528 31.376C87.4648 31.112 87.7108 30.803 87.8908 30.449C88.0708 30.101 88.1608 29.729 88.1608 29.333V27.344C87.8488 27.908 87.4258 28.364 86.8918 28.712C86.3638 29.06 85.7488 29.234 85.0468 29.234C84.4168 29.234 83.8228 29.111 83.2648 28.865C82.7128 28.619 82.2268 28.28 81.8068 27.848C81.3868 27.41 81.0568 26.906 80.8168 26.336C80.5828 25.766 80.4658 25.154 80.4658 24.5C80.4658 23.846 80.5828 23.234 80.8168 22.664C81.0568 22.088 81.3868 21.584 81.8068 21.152C82.2268 20.714 82.7128 20.372 83.2648 20.126C83.8228 19.88 84.4168 19.757 85.0468 19.757C85.7488 19.757 86.3638 19.931 86.8918 20.279C87.4258 20.621 87.8488 21.077 88.1608 21.647V20ZM85.0558 28.01C85.6798 28.01 86.2168 27.848 86.6668 27.524C87.1228 27.2 87.4738 26.771 87.7198 26.237C87.9658 25.703 88.0888 25.124 88.0888 24.5C88.0888 23.858 87.9628 23.273 87.7108 22.745C87.4648 22.211 87.1138 21.785 86.6578 21.467C86.2018 21.143 85.6678 20.981 85.0558 20.981C84.4438 20.981 83.8858 21.14 83.3818 21.458C82.8838 21.77 82.4878 22.193 82.1938 22.727C81.8998 23.261 81.7528 23.852 81.7528 24.5C81.7528 25.148 81.9028 25.739 82.2028 26.273C82.5028 26.801 82.9018 27.224 83.3998 27.542C83.9038 27.854 84.4558 28.01 85.0558 28.01ZM99.4358 23.429V29H98.1758V23.681C98.1758 23.189 98.0558 22.742 97.8158 22.34C97.5758 21.938 97.2548 21.617 96.8528 21.377C96.4508 21.137 96.0038 21.017 95.5118 21.017C95.0258 21.017 94.5788 21.137 94.1708 21.377C93.7688 21.617 93.4478 21.938 93.2078 22.34C92.9678 22.742 92.8478 23.189 92.8478 23.681V29H91.5878V15.5H92.8478V21.242C93.1658 20.786 93.5798 20.423 94.0898 20.153C94.5998 19.883 95.1548 19.748 95.7548 19.748C96.4328 19.748 97.0508 19.913 97.6088 20.243C98.1668 20.573 98.6108 21.017 98.9408 21.575C99.2708 22.133 99.4358 22.751 99.4358 23.429ZM105.837 21.26H103.686L103.677 29H102.417L102.426 21.26H100.797V20H102.426L102.417 17.174H103.677L103.686 20H105.837V21.26ZM107.443 29V20H108.703V21.242C109.027 20.786 109.441 20.423 109.945 20.153C110.449 19.883 111.001 19.748 111.601 19.748C112.279 19.748 112.9 19.916 113.464 20.252C114.028 20.582 114.469 21.023 114.787 21.575C115.105 21.023 115.543 20.582 116.101 20.252C116.659 19.916 117.277 19.748 117.955 19.748C118.633 19.748 119.251 19.913 119.809 20.243C120.367 20.573 120.811 21.017 121.141 21.575C121.471 22.133 121.636 22.751 121.636 23.429V29H120.376V23.708C120.376 23.228 120.259 22.784 120.025 22.376C119.791 21.968 119.476 21.641 119.08 21.395C118.69 21.143 118.255 21.017 117.775 21.017C117.295 21.017 116.857 21.134 116.461 21.368C116.071 21.596 115.759 21.914 115.525 22.322C115.291 22.724 115.174 23.186 115.174 23.708V29H113.914V23.708C113.914 23.186 113.797 22.724 113.563 22.322C113.329 21.914 113.014 21.596 112.618 21.368C112.222 21.134 111.784 21.017 111.304 21.017C110.83 21.017 110.395 21.143 109.999 21.395C109.603 21.641 109.288 21.968 109.054 22.376C108.82 22.784 108.703 23.228 108.703 23.708V29H107.443ZM130.662 20H131.922V29H130.662L130.617 27.326C130.323 27.896 129.912 28.358 129.384 28.712C128.856 29.06 128.226 29.234 127.494 29.234C126.834 29.234 126.216 29.111 125.64 28.865C125.064 28.613 124.557 28.268 124.119 27.83C123.681 27.392 123.339 26.885 123.093 26.309C122.847 25.733 122.724 25.115 122.724 24.455C122.724 23.807 122.844 23.198 123.084 22.628C123.33 22.058 123.666 21.557 124.092 21.125C124.524 20.693 125.022 20.357 125.586 20.117C126.156 19.871 126.765 19.748 127.413 19.748C128.163 19.748 128.817 19.928 129.375 20.288C129.933 20.642 130.377 21.107 130.707 21.683L130.662 20ZM127.467 28.01C128.109 28.01 128.661 27.854 129.123 27.542C129.585 27.224 129.939 26.798 130.185 26.264C130.437 25.73 130.563 25.142 130.563 24.5C130.563 23.84 130.437 23.246 130.185 22.718C129.933 22.184 129.576 21.761 129.114 21.449C128.652 21.137 128.103 20.981 127.467 20.981C126.831 20.981 126.249 21.14 125.721 21.458C125.199 21.77 124.782 22.193 124.47 22.727C124.164 23.261 124.011 23.852 124.011 24.5C124.011 25.154 124.17 25.748 124.488 26.282C124.806 26.81 125.226 27.23 125.748 27.542C126.276 27.854 126.849 28.01 127.467 28.01ZM133.723 29V20H134.983V21.242C135.301 20.786 135.715 20.423 136.225 20.153C136.735 19.883 137.29 19.748 137.89 19.748C138.238 19.748 138.574 19.793 138.898 19.883L138.385 21.134C138.133 21.056 137.887 21.017 137.647 21.017C137.161 21.017 136.714 21.137 136.306 21.377C135.904 21.617 135.583 21.938 135.343 22.34C135.103 22.742 134.983 23.189 134.983 23.681V29H133.723ZM143.519 29.234C142.691 29.234 141.935 29.021 141.251 28.595C140.573 28.169 140.03 27.599 139.622 26.885C139.22 26.165 139.019 25.37 139.019 24.5C139.019 23.84 139.136 23.225 139.37 22.655C139.604 22.079 139.925 21.575 140.333 21.143C140.747 20.705 141.227 20.363 141.773 20.117C142.319 19.871 142.901 19.748 143.519 19.748C144.185 19.748 144.797 19.88 145.355 20.144C145.919 20.408 146.402 20.777 146.804 21.251C147.212 21.725 147.518 22.28 147.722 22.916C147.932 23.552 148.019 24.239 147.983 24.977H140.351C140.423 25.547 140.603 26.057 140.891 26.507C141.185 26.957 141.557 27.314 142.007 27.578C142.463 27.836 142.967 27.968 143.519 27.974C144.119 27.974 144.659 27.818 145.139 27.506C145.625 27.194 146.015 26.765 146.309 26.219L147.587 26.516C147.227 27.314 146.684 27.968 145.958 28.478C145.232 28.982 144.419 29.234 143.519 29.234ZM140.315 23.96H146.714C146.672 23.402 146.501 22.892 146.201 22.43C145.907 21.962 145.526 21.59 145.058 21.314C144.59 21.032 144.077 20.891 143.519 20.891C142.961 20.891 142.451 21.029 141.989 21.305C141.527 21.575 141.149 21.944 140.855 22.412C140.561 22.874 140.381 23.39 140.315 23.96ZM149.424 25.22V16.4H150.531V25.22H149.424ZM149.982 29.234C149.778 29.234 149.604 29.162 149.46 29.018C149.322 28.88 149.253 28.709 149.253 28.505C149.253 28.307 149.322 28.139 149.46 28.001C149.604 27.863 149.778 27.794 149.982 27.794C150.174 27.794 150.339 27.863 150.477 28.001C150.615 28.139 150.684 28.307 150.684 28.505C150.684 28.709 150.615 28.88 150.477 29.018C150.339 29.162 150.174 29.234 149.982 29.234Z" fill="white"/>
</svg>
