<svg width="182" height="46" viewBox="0 0 182 46" fill="none" xmlns="http://www.w3.org/2000/svg">
<rect x="-30" width="212" height="46" rx="23" fill="#827CA9" fill-opacity="0.8"/>
<path d="M-67.65 29V16.4H-66.39V29H-67.65ZM-52.2337 15.5H-50.9737V29H-52.2337V27.317C-52.5457 27.893 -52.9747 28.358 -53.5207 28.712C-54.0607 29.06 -54.7027 29.234 -55.4467 29.234C-56.1007 29.234 -56.7127 29.111 -57.2827 28.865C-57.8527 28.619 -58.3567 28.28 -58.7947 27.848C-59.2267 27.41 -59.5657 26.906 -59.8117 26.336C-60.0577 25.766 -60.1807 25.154 -60.1807 24.5C-60.1807 23.846 -60.0577 23.234 -59.8117 22.664C-59.5657 22.088 -59.2267 21.584 -58.7947 21.152C-58.3567 20.714 -57.8527 20.372 -57.2827 20.126C-56.7127 19.88 -56.1007 19.757 -55.4467 19.757C-54.7027 19.757 -54.0607 19.934 -53.5207 20.288C-52.9747 20.636 -52.5457 21.095 -52.2337 21.665V15.5ZM-55.4377 28.01C-54.7957 28.01 -54.2437 27.854 -53.7817 27.542C-53.3197 27.224 -52.9657 26.798 -52.7197 26.264C-52.4677 25.73 -52.3417 25.142 -52.3417 24.5C-52.3417 23.84 -52.4677 23.246 -52.7197 22.718C-52.9717 22.184 -53.3287 21.761 -53.7907 21.449C-54.2527 21.137 -54.8017 20.981 -55.4377 20.981C-56.0737 20.981 -56.6527 21.14 -57.1747 21.458C-57.6967 21.77 -58.1137 22.193 -58.4257 22.727C-58.7377 23.261 -58.8937 23.852 -58.8937 24.5C-58.8937 25.154 -58.7347 25.748 -58.4167 26.282C-58.0987 26.81 -57.6787 27.23 -57.1567 27.542C-56.6287 27.854 -56.0557 28.01 -55.4377 28.01ZM-48.8126 29V20H-47.5526V21.242C-47.2346 20.786 -46.8206 20.423 -46.3106 20.153C-45.8006 19.883 -45.2456 19.748 -44.6456 19.748C-44.2976 19.748 -43.9616 19.793 -43.6376 19.883L-44.1506 21.134C-44.4026 21.056 -44.6486 21.017 -44.8886 21.017C-45.3746 21.017 -45.8216 21.137 -46.2296 21.377C-46.6316 21.617 -46.9526 21.938 -47.1926 22.34C-47.4326 22.742 -47.5526 23.189 -47.5526 23.681V29H-48.8126ZM-39.0166 29.234C-39.8446 29.234 -40.6006 29.021 -41.2846 28.595C-41.9626 28.169 -42.5056 27.599 -42.9136 26.885C-43.3156 26.165 -43.5166 25.37 -43.5166 24.5C-43.5166 23.84 -43.3996 23.225 -43.1656 22.655C-42.9316 22.079 -42.6106 21.575 -42.2026 21.143C-41.7886 20.705 -41.3086 20.363 -40.7626 20.117C-40.2166 19.871 -39.6346 19.748 -39.0166 19.748C-38.3506 19.748 -37.7386 19.88 -37.1806 20.144C-36.6166 20.408 -36.1336 20.777 -35.7316 21.251C-35.3236 21.725 -35.0176 22.28 -34.8136 22.916C-34.6036 23.552 -34.5166 24.239 -34.5526 24.977H-42.1846C-42.1126 25.547 -41.9326 26.057 -41.6446 26.507C-41.3506 26.957 -40.9786 27.314 -40.5286 27.578C-40.0726 27.836 -39.5686 27.968 -39.0166 27.974C-38.4166 27.974 -37.8766 27.818 -37.3966 27.506C-36.9106 27.194 -36.5206 26.765 -36.2266 26.219L-34.9486 26.516C-35.3086 27.314 -35.8516 27.968 -36.5776 28.478C-37.3036 28.982 -38.1166 29.234 -39.0166 29.234ZM-42.2206 23.96H-35.8216C-35.8636 23.402 -36.0346 22.892 -36.3346 22.43C-36.6286 21.962 -37.0096 21.59 -37.4776 21.314C-37.9456 21.032 -38.4586 20.891 -39.0166 20.891C-39.5746 20.891 -40.0846 21.029 -40.5466 21.305C-41.0086 21.575 -41.3866 21.944 -41.6806 22.412C-41.9746 22.874 -42.1546 23.39 -42.2206 23.96ZM-25.6997 20H-24.4397V29H-25.6997L-25.7447 27.326C-26.0387 27.896 -26.4497 28.358 -26.9777 28.712C-27.5057 29.06 -28.1357 29.234 -28.8677 29.234C-29.5277 29.234 -30.1457 29.111 -30.7217 28.865C-31.2977 28.613 -31.8047 28.268 -32.2427 27.83C-32.6807 27.392 -33.0227 26.885 -33.2687 26.309C-33.5147 25.733 -33.6377 25.115 -33.6377 24.455C-33.6377 23.807 -33.5177 23.198 -33.2777 22.628C-33.0317 22.058 -32.6957 21.557 -32.2697 21.125C-31.8377 20.693 -31.3397 20.357 -30.7757 20.117C-30.2057 19.871 -29.5967 19.748 -28.9487 19.748C-28.1987 19.748 -27.5447 19.928 -26.9867 20.288C-26.4287 20.642 -25.9847 21.107 -25.6547 21.683L-25.6997 20ZM-28.8947 28.01C-28.2527 28.01 -27.7007 27.854 -27.2387 27.542C-26.7767 27.224 -26.4227 26.798 -26.1767 26.264C-25.9247 25.73 -25.7987 25.142 -25.7987 24.5C-25.7987 23.84 -25.9247 23.246 -26.1767 22.718C-26.4287 22.184 -26.7857 21.761 -27.2477 21.449C-27.7097 21.137 -28.2587 20.981 -28.8947 20.981C-29.5307 20.981 -30.1127 21.14 -30.6407 21.458C-31.1627 21.77 -31.5797 22.193 -31.8917 22.727C-32.1977 23.261 -32.3507 23.852 -32.3507 24.5C-32.3507 25.154 -32.1917 25.748 -31.8737 26.282C-31.5557 26.81 -31.1357 27.23 -30.6137 27.542C-30.0857 27.854 -29.5127 28.01 -28.8947 28.01ZM-22.6387 29V20H-21.3787V21.242C-21.0547 20.786 -20.6407 20.423 -20.1367 20.153C-19.6327 19.883 -19.0807 19.748 -18.4807 19.748C-17.8027 19.748 -17.1817 19.916 -16.6177 20.252C-16.0537 20.582 -15.6127 21.023 -15.2947 21.575C-14.9767 21.023 -14.5387 20.582 -13.9807 20.252C-13.4227 19.916 -12.8047 19.748 -12.1267 19.748C-11.4487 19.748 -10.8307 19.913 -10.2727 20.243C-9.71475 20.573 -9.27075 21.017 -8.94075 21.575C-8.61075 22.133 -8.44575 22.751 -8.44575 23.429V29H-9.70575V23.708C-9.70575 23.228 -9.82275 22.784 -10.0567 22.376C-10.2907 21.968 -10.6057 21.641 -11.0017 21.395C-11.3917 21.143 -11.8267 21.017 -12.3067 21.017C-12.7867 21.017 -13.2247 21.134 -13.6207 21.368C-14.0107 21.596 -14.3227 21.914 -14.5567 22.322C-14.7907 22.724 -14.9077 23.186 -14.9077 23.708V29H-16.1677V23.708C-16.1677 23.186 -16.2847 22.724 -16.5187 22.322C-16.7527 21.914 -17.0677 21.596 -17.4637 21.368C-17.8597 21.134 -18.2977 21.017 -18.7777 21.017C-19.2517 21.017 -19.6867 21.143 -20.0827 21.395C-20.4787 21.641 -20.7937 21.968 -21.0277 22.376C-21.2617 22.784 -21.3787 23.228 -21.3787 23.708V29H-22.6387ZM-2.85844 29.234C-3.68644 29.234 -4.44244 29.021 -5.12644 28.595C-5.80444 28.169 -6.34744 27.599 -6.75544 26.885C-7.15744 26.165 -7.35844 25.37 -7.35844 24.5C-7.35844 23.84 -7.24144 23.225 -7.00744 22.655C-6.77344 22.079 -6.45244 21.575 -6.04444 21.143C-5.63044 20.705 -5.15044 20.363 -4.60444 20.117C-4.05844 19.871 -3.47644 19.748 -2.85844 19.748C-2.19244 19.748 -1.58044 19.88 -1.02244 20.144C-0.458437 20.408 0.024563 20.777 0.426563 21.251C0.834563 21.725 1.14056 22.28 1.34456 22.916C1.55456 23.552 1.64156 24.239 1.60556 24.977H-6.02644C-5.95444 25.547 -5.77444 26.057 -5.48644 26.507C-5.19244 26.957 -4.82044 27.314 -4.37044 27.578C-3.91444 27.836 -3.41044 27.968 -2.85844 27.974C-2.25844 27.974 -1.71844 27.818 -1.23844 27.506C-0.752437 27.194 -0.362437 26.765 -0.0684369 26.219L1.20956 26.516C0.849563 27.314 0.306563 27.968 -0.419437 28.478C-1.14544 28.982 -1.95844 29.234 -2.85844 29.234ZM-6.06244 23.96H0.336563C0.294563 23.402 0.123563 22.892 -0.176437 22.43C-0.470437 21.962 -0.851437 21.59 -1.31944 21.314C-1.78744 21.032 -2.30044 20.891 -2.85844 20.891C-3.41644 20.891 -3.92644 21.029 -4.38844 21.305C-4.85044 21.575 -5.22844 21.944 -5.52244 22.412C-5.81644 22.874 -5.99644 23.39 -6.06244 23.96ZM10.4675 15.5H11.7275V29H10.4675V27.317C10.1555 27.893 9.72647 28.358 9.18047 28.712C8.64047 29.06 7.99847 29.234 7.25447 29.234C6.60047 29.234 5.98847 29.111 5.41847 28.865C4.84847 28.619 4.34447 28.28 3.90647 27.848C3.47447 27.41 3.13547 26.906 2.88947 26.336C2.64347 25.766 2.52047 25.154 2.52047 24.5C2.52047 23.846 2.64347 23.234 2.88947 22.664C3.13547 22.088 3.47447 21.584 3.90647 21.152C4.34447 20.714 4.84847 20.372 5.41847 20.126C5.98847 19.88 6.60047 19.757 7.25447 19.757C7.99847 19.757 8.64047 19.934 9.18047 20.288C9.72647 20.636 10.1555 21.095 10.4675 21.665V15.5ZM7.26347 28.01C7.90547 28.01 8.45747 27.854 8.91947 27.542C9.38147 27.224 9.73547 26.798 9.98147 26.264C10.2335 25.73 10.3595 25.142 10.3595 24.5C10.3595 23.84 10.2335 23.246 9.98147 22.718C9.72947 22.184 9.37247 21.761 8.91047 21.449C8.44847 21.137 7.89947 20.981 7.26347 20.981C6.62747 20.981 6.04847 21.14 5.52647 21.458C5.00447 21.77 4.58747 22.193 4.27547 22.727C3.96347 23.261 3.80747 23.852 3.80747 24.5C3.80747 25.154 3.96647 25.748 4.28447 26.282C4.60247 26.81 5.02247 27.23 5.54447 27.542C6.07247 27.854 6.64547 28.01 7.26347 28.01ZM25.6108 20H26.8708V29H25.6108L25.5658 27.326C25.2718 27.896 24.8608 28.358 24.3328 28.712C23.8048 29.06 23.1748 29.234 22.4428 29.234C21.7828 29.234 21.1648 29.111 20.5888 28.865C20.0128 28.613 19.5058 28.268 19.0678 27.83C18.6298 27.392 18.2878 26.885 18.0418 26.309C17.7958 25.733 17.6728 25.115 17.6728 24.455C17.6728 23.807 17.7928 23.198 18.0328 22.628C18.2788 22.058 18.6148 21.557 19.0408 21.125C19.4728 20.693 19.9708 20.357 20.5348 20.117C21.1048 19.871 21.7138 19.748 22.3618 19.748C23.1118 19.748 23.7658 19.928 24.3238 20.288C24.8818 20.642 25.3258 21.107 25.6558 21.683L25.6108 20ZM22.4158 28.01C23.0578 28.01 23.6098 27.854 24.0718 27.542C24.5338 27.224 24.8878 26.798 25.1338 26.264C25.3858 25.73 25.5118 25.142 25.5118 24.5C25.5118 23.84 25.3858 23.246 25.1338 22.718C24.8818 22.184 24.5248 21.761 24.0628 21.449C23.6008 21.137 23.0518 20.981 22.4158 20.981C21.7798 20.981 21.1978 21.14 20.6698 21.458C20.1478 21.77 19.7308 22.193 19.4188 22.727C19.1128 23.261 18.9598 23.852 18.9598 24.5C18.9598 25.154 19.1188 25.748 19.4368 26.282C19.7548 26.81 20.1748 27.23 20.6968 27.542C21.2248 27.854 21.7978 28.01 22.4158 28.01ZM33.2588 19.748C34.1348 19.748 34.9298 19.961 35.6438 20.387C36.3638 20.813 36.9368 21.386 37.3628 22.106C37.7888 22.82 38.0018 23.615 38.0018 24.491C38.0018 25.145 37.8788 25.76 37.6328 26.336C37.3868 26.906 37.0448 27.41 36.6068 27.848C36.1748 28.28 35.6708 28.619 35.0948 28.865C34.5248 29.111 33.9128 29.234 33.2588 29.234C32.5148 29.234 31.8728 29.057 31.3328 28.703C30.7928 28.349 30.3668 27.887 30.0548 27.317V29H28.7948V15.5H30.0548V21.665C30.3668 21.095 30.7928 20.633 31.3328 20.279C31.8728 19.925 32.5148 19.748 33.2588 19.748ZM33.2498 28.001C33.8918 28.001 34.4738 27.845 34.9958 27.533C35.5178 27.215 35.9348 26.789 36.2468 26.255C36.5588 25.721 36.7148 25.133 36.7148 24.491C36.7148 23.831 36.5558 23.237 36.2378 22.709C35.9198 22.175 35.4968 21.752 34.9688 21.44C34.4468 21.128 33.8738 20.972 33.2498 20.972C32.6138 20.972 32.0618 21.131 31.5938 21.449C31.1318 21.767 30.7748 22.193 30.5228 22.727C30.2768 23.261 30.1538 23.849 30.1538 24.491C30.1538 25.145 30.2798 25.739 30.5318 26.273C30.7838 26.801 31.1408 27.221 31.6028 27.533C32.0708 27.845 32.6198 28.001 33.2498 28.001ZM43.4072 29.234C42.5792 29.234 41.8232 29.021 41.1392 28.595C40.4612 28.169 39.9182 27.599 39.5102 26.885C39.1082 26.165 38.9072 25.37 38.9072 24.5C38.9072 23.84 39.0242 23.225 39.2582 22.655C39.4922 22.079 39.8132 21.575 40.2212 21.143C40.6352 20.705 41.1152 20.363 41.6612 20.117C42.2072 19.871 42.7892 19.748 43.4072 19.748C44.2352 19.748 44.9882 19.961 45.6662 20.387C46.3502 20.813 46.8932 21.386 47.2952 22.106C47.7032 22.826 47.9072 23.624 47.9072 24.5C47.9072 25.154 47.7902 25.766 47.5562 26.336C47.3222 26.906 46.9982 27.41 46.5842 27.848C46.1762 28.28 45.6992 28.619 45.1532 28.865C44.6132 29.111 44.0312 29.234 43.4072 29.234ZM43.4072 27.974C44.0192 27.974 44.5682 27.815 45.0542 27.497C45.5462 27.173 45.9332 26.747 46.2152 26.219C46.5032 25.691 46.6472 25.118 46.6472 24.5C46.6472 23.87 46.5032 23.291 46.2152 22.763C45.9272 22.229 45.5372 21.803 45.0452 21.485C44.5592 21.167 44.0132 21.008 43.4072 21.008C42.7952 21.008 42.2432 21.17 41.7512 21.494C41.2652 21.812 40.8782 22.235 40.5902 22.763C40.3082 23.291 40.1672 23.87 40.1672 24.5C40.1672 25.148 40.3142 25.736 40.6082 26.264C40.9022 26.786 41.2952 27.203 41.7872 27.515C42.2792 27.821 42.8192 27.974 43.4072 27.974ZM48.9837 25.553V20H50.2437V25.301C50.2437 25.793 50.3637 26.24 50.6037 26.642C50.8437 27.044 51.1647 27.365 51.5667 27.605C51.9747 27.845 52.4217 27.965 52.9077 27.965C53.3997 27.965 53.8437 27.845 54.2397 27.605C54.6417 27.365 54.9627 27.044 55.2027 26.642C55.4427 26.24 55.5627 25.793 55.5627 25.301V20H56.8227L56.8317 29H55.5717L55.5627 27.74C55.2447 28.196 54.8307 28.559 54.3207 28.829C53.8167 29.099 53.2647 29.234 52.6647 29.234C51.9867 29.234 51.3687 29.069 50.8107 28.739C50.2527 28.409 49.8087 27.965 49.4787 27.407C49.1487 26.849 48.9837 26.231 48.9837 25.553ZM63.2239 21.26H61.0729L61.0639 29H59.8039L59.8129 21.26H58.1839V20H59.8129L59.8039 17.174H61.0639L61.0729 20H63.2239V21.26ZM69.1542 29V20H70.4142V21.242C70.7382 20.786 71.1522 20.423 71.6562 20.153C72.1602 19.883 72.7122 19.748 73.3122 19.748C73.9902 19.748 74.6112 19.916 75.1752 20.252C75.7392 20.582 76.1802 21.023 76.4982 21.575C76.8162 21.023 77.2542 20.582 77.8122 20.252C78.3702 19.916 78.9882 19.748 79.6662 19.748C80.3442 19.748 80.9622 19.913 81.5202 20.243C82.0782 20.573 82.5222 21.017 82.8522 21.575C83.1822 22.133 83.3472 22.751 83.3472 23.429V29H82.0872V23.708C82.0872 23.228 81.9702 22.784 81.7362 22.376C81.5022 21.968 81.1872 21.641 80.7912 21.395C80.4012 21.143 79.9662 21.017 79.4862 21.017C79.0062 21.017 78.5682 21.134 78.1722 21.368C77.7822 21.596 77.4702 21.914 77.2362 22.322C77.0022 22.724 76.8852 23.186 76.8852 23.708V29H75.6252V23.708C75.6252 23.186 75.5082 22.724 75.2742 22.322C75.0402 21.914 74.7252 21.596 74.3292 21.368C73.9332 21.134 73.4952 21.017 73.0152 21.017C72.5412 21.017 72.1062 21.143 71.7102 21.395C71.3142 21.641 70.9992 21.968 70.7652 22.376C70.5312 22.784 70.4142 23.228 70.4142 23.708V29H69.1542ZM91.1044 20H92.4364L87.5134 33.5H86.1724L87.8104 29L84.5794 20H85.9564L88.4404 27.263L91.1044 20ZM98.5624 29V20H99.8224V21.242C100.146 20.786 100.56 20.423 101.064 20.153C101.568 19.883 102.12 19.748 102.72 19.748C103.398 19.748 104.019 19.916 104.583 20.252C105.147 20.582 105.588 21.023 105.906 21.575C106.224 21.023 106.662 20.582 107.22 20.252C107.778 19.916 108.396 19.748 109.074 19.748C109.752 19.748 110.37 19.913 110.928 20.243C111.486 20.573 111.93 21.017 112.26 21.575C112.59 22.133 112.755 22.751 112.755 23.429V29H111.495V23.708C111.495 23.228 111.378 22.784 111.144 22.376C110.91 21.968 110.595 21.641 110.199 21.395C109.809 21.143 109.374 21.017 108.894 21.017C108.414 21.017 107.976 21.134 107.58 21.368C107.19 21.596 106.878 21.914 106.644 22.322C106.41 22.724 106.293 23.186 106.293 23.708V29H105.033V23.708C105.033 23.186 104.916 22.724 104.682 22.322C104.448 21.914 104.133 21.596 103.737 21.368C103.341 21.134 102.903 21.017 102.423 21.017C101.949 21.017 101.514 21.143 101.118 21.395C100.722 21.641 100.407 21.968 100.173 22.376C99.9394 22.784 99.8224 23.228 99.8224 23.708V29H98.5624ZM118.343 29.234C117.515 29.234 116.759 29.021 116.075 28.595C115.397 28.169 114.854 27.599 114.446 26.885C114.044 26.165 113.843 25.37 113.843 24.5C113.843 23.84 113.96 23.225 114.194 22.655C114.428 22.079 114.749 21.575 115.157 21.143C115.571 20.705 116.051 20.363 116.597 20.117C117.143 19.871 117.725 19.748 118.343 19.748C119.171 19.748 119.924 19.961 120.602 20.387C121.286 20.813 121.829 21.386 122.231 22.106C122.639 22.826 122.843 23.624 122.843 24.5C122.843 25.154 122.726 25.766 122.492 26.336C122.258 26.906 121.934 27.41 121.52 27.848C121.112 28.28 120.635 28.619 120.089 28.865C119.549 29.111 118.967 29.234 118.343 29.234ZM118.343 27.974C118.955 27.974 119.504 27.815 119.99 27.497C120.482 27.173 120.869 26.747 121.151 26.219C121.439 25.691 121.583 25.118 121.583 24.5C121.583 23.87 121.439 23.291 121.151 22.763C120.863 22.229 120.473 21.803 119.981 21.485C119.495 21.167 118.949 21.008 118.343 21.008C117.731 21.008 117.179 21.17 116.687 21.494C116.201 21.812 115.814 22.235 115.526 22.763C115.244 23.291 115.103 23.87 115.103 24.5C115.103 25.148 115.25 25.736 115.544 26.264C115.838 26.786 116.231 27.203 116.723 27.515C117.215 27.821 117.755 27.974 118.343 27.974ZM124.367 29V20H125.627V21.242C125.951 20.786 126.365 20.423 126.869 20.153C127.373 19.883 127.925 19.748 128.525 19.748C129.203 19.748 129.824 19.916 130.388 20.252C130.952 20.582 131.393 21.023 131.711 21.575C132.029 21.023 132.467 20.582 133.025 20.252C133.583 19.916 134.201 19.748 134.879 19.748C135.557 19.748 136.175 19.913 136.733 20.243C137.291 20.573 137.735 21.017 138.065 21.575C138.395 22.133 138.56 22.751 138.56 23.429V29H137.3V23.708C137.3 23.228 137.183 22.784 136.949 22.376C136.715 21.968 136.4 21.641 136.004 21.395C135.614 21.143 135.179 21.017 134.699 21.017C134.219 21.017 133.781 21.134 133.385 21.368C132.995 21.596 132.683 21.914 132.449 22.322C132.215 22.724 132.098 23.186 132.098 23.708V29H130.838V23.708C130.838 23.186 130.721 22.724 130.487 22.322C130.253 21.914 129.938 21.596 129.542 21.368C129.146 21.134 128.708 21.017 128.228 21.017C127.754 21.017 127.319 21.143 126.923 21.395C126.527 21.641 126.212 21.968 125.978 22.376C125.744 22.784 125.627 23.228 125.627 23.708V29H124.367ZM140.714 29.234C140.516 29.234 140.348 29.162 140.21 29.018C140.072 28.88 140.003 28.709 140.003 28.505C140.003 28.313 140.072 28.148 140.21 28.01C140.348 27.866 140.516 27.794 140.714 27.794C140.918 27.794 141.089 27.866 141.227 28.01C141.371 28.148 141.443 28.313 141.443 28.505C141.443 28.709 141.371 28.88 141.227 29.018C141.089 29.162 140.918 29.234 140.714 29.234ZM143.949 29.234C143.751 29.234 143.583 29.162 143.445 29.018C143.307 28.88 143.238 28.709 143.238 28.505C143.238 28.313 143.307 28.148 143.445 28.01C143.583 27.866 143.751 27.794 143.949 27.794C144.153 27.794 144.324 27.866 144.462 28.01C144.606 28.148 144.678 28.313 144.678 28.505C144.678 28.709 144.606 28.88 144.462 29.018C144.324 29.162 144.153 29.234 143.949 29.234ZM147.183 29.234C146.985 29.234 146.817 29.162 146.679 29.018C146.541 28.88 146.472 28.709 146.472 28.505C146.472 28.313 146.541 28.148 146.679 28.01C146.817 27.866 146.985 27.794 147.183 27.794C147.387 27.794 147.558 27.866 147.696 28.01C147.84 28.148 147.912 28.313 147.912 28.505C147.912 28.709 147.84 28.88 147.696 29.018C147.558 29.162 147.387 29.234 147.183 29.234ZM150.417 29.234C150.219 29.234 150.051 29.162 149.913 29.018C149.775 28.88 149.706 28.709 149.706 28.505C149.706 28.313 149.775 28.148 149.913 28.01C150.051 27.866 150.219 27.794 150.417 27.794C150.621 27.794 150.792 27.866 150.93 28.01C151.074 28.148 151.146 28.313 151.146 28.505C151.146 28.709 151.074 28.88 150.93 29.018C150.792 29.162 150.621 29.234 150.417 29.234ZM153.652 29.234C153.454 29.234 153.286 29.162 153.148 29.018C153.01 28.88 152.941 28.709 152.941 28.505C152.941 28.313 153.01 28.148 153.148 28.01C153.286 27.866 153.454 27.794 153.652 27.794C153.856 27.794 154.027 27.866 154.165 28.01C154.309 28.148 154.381 28.313 154.381 28.505C154.381 28.709 154.309 28.88 154.165 29.018C154.027 29.162 153.856 29.234 153.652 29.234Z" fill="white"/>
</svg>
