<svg width="130" height="46" viewBox="0 0 130 46" fill="none" xmlns="http://www.w3.org/2000/svg">
<rect width="212" height="46" rx="23" fill="#827CA9" fill-opacity="0.8"/>
<path d="M22.35 29V16.4H23.61V29H22.35ZM34.1303 29H32.8343L29.8193 20H31.0523L33.5003 27.254L35.9303 20H37.2623L39.6923 27.254L42.1223 20H43.3643L40.3493 29H39.0443L36.5783 21.674L34.1303 29ZM51.9077 20H53.1677V29H51.9077L51.8627 27.326C51.5687 27.896 51.1577 28.358 50.6297 28.712C50.1017 29.06 49.4717 29.234 48.7397 29.234C48.0797 29.234 47.4617 29.111 46.8857 28.865C46.3097 28.613 45.8027 28.268 45.3647 27.83C44.9267 27.392 44.5847 26.885 44.3387 26.309C44.0927 25.733 43.9697 25.115 43.9697 24.455C43.9697 23.807 44.0897 23.198 44.3297 22.628C44.5757 22.058 44.9117 21.557 45.3377 21.125C45.7697 20.693 46.2677 20.357 46.8317 20.117C47.4017 19.871 48.0107 19.748 48.6587 19.748C49.4087 19.748 50.0627 19.928 50.6207 20.288C51.1787 20.642 51.6227 21.107 51.9527 21.683L51.9077 20ZM48.7127 28.01C49.3547 28.01 49.9067 27.854 50.3687 27.542C50.8307 27.224 51.1847 26.798 51.4307 26.264C51.6827 25.73 51.8087 25.142 51.8087 24.5C51.8087 23.84 51.6827 23.246 51.4307 22.718C51.1787 22.184 50.8217 21.761 50.3597 21.449C49.8977 21.137 49.3487 20.981 48.7127 20.981C48.0767 20.981 47.4947 21.14 46.9667 21.458C46.4447 21.77 46.0277 22.193 45.7157 22.727C45.4097 23.261 45.2567 23.852 45.2567 24.5C45.2567 25.154 45.4157 25.748 45.7337 26.282C46.0517 26.81 46.4717 27.23 46.9937 27.542C47.5217 27.854 48.0947 28.01 48.7127 28.01ZM57.7497 29.171C57.2577 29.159 56.7777 29.069 56.3097 28.901C55.8417 28.733 55.4337 28.505 55.0857 28.217C54.7377 27.929 54.4887 27.602 54.3387 27.236L55.4277 26.768C55.5237 27.002 55.7007 27.218 55.9587 27.416C56.2227 27.608 56.5227 27.764 56.8587 27.884C57.1947 27.998 57.5277 28.055 57.8577 28.055C58.2237 28.055 58.5657 27.995 58.8837 27.875C59.2017 27.755 59.4597 27.584 59.6577 27.362C59.8617 27.134 59.9637 26.867 59.9637 26.561C59.9637 26.231 59.8557 25.973 59.6397 25.787C59.4237 25.595 59.1507 25.445 58.8207 25.337C58.4907 25.223 58.1517 25.115 57.8037 25.013C57.1677 24.839 56.6067 24.647 56.1207 24.437C55.6347 24.227 55.2537 23.96 54.9777 23.636C54.7077 23.306 54.5727 22.883 54.5727 22.367C54.5727 21.821 54.7257 21.35 55.0317 20.954C55.3437 20.552 55.7487 20.243 56.2467 20.027C56.7507 19.805 57.2877 19.694 57.8577 19.694C58.5897 19.694 59.2557 19.853 59.8557 20.171C60.4617 20.489 60.8997 20.912 61.1697 21.44L60.1527 22.043C60.0447 21.797 59.8737 21.584 59.6397 21.404C59.4057 21.224 59.1387 21.083 58.8387 20.981C58.5447 20.879 58.2447 20.825 57.9387 20.819C57.5547 20.813 57.1977 20.87 56.8677 20.99C56.5377 21.104 56.2707 21.275 56.0667 21.503C55.8687 21.731 55.7697 22.01 55.7697 22.34C55.7697 22.67 55.8687 22.922 56.0667 23.096C56.2647 23.264 56.5317 23.402 56.8677 23.51C57.2097 23.612 57.5937 23.732 58.0197 23.87C58.5657 24.044 59.0787 24.242 59.5587 24.464C60.0387 24.686 60.4257 24.962 60.7197 25.292C61.0137 25.622 61.1577 26.039 61.1517 26.543C61.1517 27.083 60.9897 27.554 60.6657 27.956C60.3417 28.358 59.9217 28.667 59.4057 28.883C58.8897 29.093 58.3377 29.189 57.7497 29.171ZM68.8903 17.651V20H71.5903V21.26H68.8903V29H67.6303V21.26H66.3973V20H67.6303V17.651C67.6303 17.213 67.7353 16.817 67.9453 16.463C68.1613 16.103 68.4493 15.818 68.8093 15.608C69.1693 15.392 69.5683 15.284 70.0063 15.284C70.3243 15.284 70.6303 15.347 70.9243 15.473C71.2243 15.599 71.4913 15.785 71.7253 16.031L70.8253 16.922C70.7293 16.802 70.6063 16.709 70.4563 16.643C70.3123 16.577 70.1623 16.544 70.0063 16.544C69.7003 16.544 69.4363 16.652 69.2143 16.868C68.9983 17.084 68.8903 17.345 68.8903 17.651ZM73.1269 29V15.5H74.3869V29H73.1269ZM82.4559 20H83.7879L78.8649 33.5H77.5239L79.1619 29L75.9309 20H77.3079L79.7919 27.263L82.4559 20ZM85.414 20H86.674V29H85.414V20ZM86.053 18.425C85.849 18.425 85.675 18.359 85.531 18.227C85.393 18.089 85.324 17.918 85.324 17.714C85.324 17.51 85.393 17.342 85.531 17.21C85.675 17.072 85.849 17.003 86.053 17.003C86.251 17.003 86.419 17.072 86.557 17.21C86.701 17.342 86.773 17.51 86.773 17.714C86.773 17.918 86.704 18.089 86.566 18.227C86.428 18.359 86.257 18.425 86.053 18.425ZM96.6546 23.429V29H95.3946V23.681C95.3946 23.189 95.2746 22.742 95.0346 22.34C94.7946 21.938 94.4736 21.617 94.0716 21.377C93.6696 21.137 93.2226 21.017 92.7306 21.017C92.2446 21.017 91.7976 21.137 91.3896 21.377C90.9876 21.617 90.6666 21.938 90.4266 22.34C90.1866 22.742 90.0666 23.189 90.0666 23.681V29H88.8066V20H90.0666V21.242C90.3846 20.786 90.7986 20.423 91.3086 20.153C91.8186 19.883 92.3736 19.748 92.9736 19.748C93.6516 19.748 94.2696 19.913 94.8276 20.243C95.3856 20.573 95.8296 21.017 96.1596 21.575C96.4896 22.133 96.6546 22.751 96.6546 23.429ZM105.436 20H106.696V29.333C106.696 29.909 106.57 30.449 106.318 30.953C106.072 31.457 105.736 31.898 105.31 32.276C104.89 32.66 104.41 32.96 103.87 33.176C103.33 33.392 102.769 33.5 102.187 33.5C101.563 33.5 100.96 33.356 100.378 33.068C99.7962 32.786 99.2892 32.408 98.8572 31.934C98.4312 31.46 98.1282 30.935 97.9482 30.359L99.1092 29.828C99.2232 30.278 99.4362 30.683 99.7482 31.043C100.066 31.409 100.438 31.697 100.864 31.907C101.296 32.123 101.737 32.231 102.187 32.231C102.601 32.231 103 32.153 103.384 31.997C103.774 31.847 104.122 31.64 104.428 31.376C104.74 31.112 104.986 30.803 105.166 30.449C105.346 30.101 105.436 29.729 105.436 29.333V27.344C105.124 27.908 104.701 28.364 104.167 28.712C103.639 29.06 103.024 29.234 102.322 29.234C101.692 29.234 101.098 29.111 100.54 28.865C99.9882 28.619 99.5022 28.28 99.0822 27.848C98.6622 27.41 98.3322 26.906 98.0922 26.336C97.8582 25.766 97.7412 25.154 97.7412 24.5C97.7412 23.846 97.8582 23.234 98.0922 22.664C98.3322 22.088 98.6622 21.584 99.0822 21.152C99.5022 20.714 99.9882 20.372 100.54 20.126C101.098 19.88 101.692 19.757 102.322 19.757C103.024 19.757 103.639 19.931 104.167 20.279C104.701 20.621 105.124 21.077 105.436 21.647V20ZM102.331 28.01C102.955 28.01 103.492 27.848 103.942 27.524C104.398 27.2 104.749 26.771 104.995 26.237C105.241 25.703 105.364 25.124 105.364 24.5C105.364 23.858 105.238 23.273 104.986 22.745C104.74 22.211 104.389 21.785 103.933 21.467C103.477 21.143 102.943 20.981 102.331 20.981C101.719 20.981 101.161 21.14 100.657 21.458C100.159 21.77 99.7632 22.193 99.4692 22.727C99.1752 23.261 99.0282 23.852 99.0282 24.5C99.0282 25.148 99.1782 25.739 99.4782 26.273C99.7782 26.801 100.177 27.224 100.675 27.542C101.179 27.854 101.731 28.01 102.331 28.01ZM113.538 29.234C113.34 29.234 113.172 29.162 113.034 29.018C112.896 28.88 112.827 28.709 112.827 28.505C112.827 28.313 112.896 28.148 113.034 28.01C113.172 27.866 113.34 27.794 113.538 27.794C113.742 27.794 113.913 27.866 114.051 28.01C114.195 28.148 114.267 28.313 114.267 28.505C114.267 28.709 114.195 28.88 114.051 29.018C113.913 29.162 113.742 29.234 113.538 29.234ZM116.773 29.234C116.575 29.234 116.407 29.162 116.269 29.018C116.131 28.88 116.062 28.709 116.062 28.505C116.062 28.313 116.131 28.148 116.269 28.01C116.407 27.866 116.575 27.794 116.773 27.794C116.977 27.794 117.148 27.866 117.286 28.01C117.43 28.148 117.502 28.313 117.502 28.505C117.502 28.709 117.43 28.88 117.286 29.018C117.148 29.162 116.977 29.234 116.773 29.234ZM120.007 29.234C119.809 29.234 119.641 29.162 119.503 29.018C119.365 28.88 119.296 28.709 119.296 28.505C119.296 28.313 119.365 28.148 119.503 28.01C119.641 27.866 119.809 27.794 120.007 27.794C120.211 27.794 120.382 27.866 120.52 28.01C120.664 28.148 120.736 28.313 120.736 28.505C120.736 28.709 120.664 28.88 120.52 29.018C120.382 29.162 120.211 29.234 120.007 29.234ZM123.242 29.234C123.044 29.234 122.876 29.162 122.738 29.018C122.6 28.88 122.531 28.709 122.531 28.505C122.531 28.313 122.6 28.148 122.738 28.01C122.876 27.866 123.044 27.794 123.242 27.794C123.446 27.794 123.617 27.866 123.755 28.01C123.899 28.148 123.971 28.313 123.971 28.505C123.971 28.709 123.899 28.88 123.755 29.018C123.617 29.162 123.446 29.234 123.242 29.234Z" fill="white"/>
</svg>
