<svg width="149" height="244" viewBox="0 0 149 244" fill="none" xmlns="http://www.w3.org/2000/svg">
<g clip-path="url(#clip0_1731_26510)">
<path d="M149.005 132.353C126.203 163.251 84.7537 173.833 50.0052 158.794C14.62 143.481 -5.54384 105.701 1.33915 67.8899C8.22213 30.2002 40.272 1.57672 79.6293 0C60.5268 25.743 58.0404 59.4908 72.3219 87.2957C86.7852 115.464 115.773 133.081 149.005 132.353Z" fill="#8571FF"/>
<path d="M18.7997 227.801V182.318H25.1066V227.801H18.7997ZM29.3293 216.43V197.479H35.6362V214.884C35.6362 216.238 35.9698 217.471 36.6368 218.583C37.3039 219.695 38.1933 220.584 39.3051 221.251C40.4169 221.898 41.6399 222.222 42.974 222.222C44.3284 222.222 45.5514 221.898 46.6429 221.251C47.7547 220.584 48.6341 219.695 49.2809 218.583C49.948 217.471 50.2815 216.238 50.2815 214.884V197.479H56.5884L56.6187 227.801H50.3118L50.2815 224.526C49.2506 225.779 47.967 226.77 46.4307 227.498C44.8944 228.225 43.2469 228.589 41.4883 228.589C39.2445 228.589 37.2028 228.043 35.3633 226.952C33.5238 225.86 32.0583 224.395 30.9667 222.555C29.8751 220.716 29.3293 218.674 29.3293 216.43ZM80.2657 219.189L85.9055 222.252C84.531 224.172 82.7824 225.709 80.6599 226.861C78.5576 228.013 76.2734 228.589 73.8072 228.589C71.0177 228.589 68.4707 227.872 66.1662 226.436C63.882 225.001 62.0526 223.081 60.678 220.675C59.3237 218.249 58.6465 215.571 58.6465 212.64C58.6465 210.416 59.0407 208.344 59.829 206.424C60.6174 204.484 61.6988 202.786 63.0734 201.33C64.4682 199.854 66.0854 198.702 67.9249 197.873C69.7644 197.045 71.7252 196.63 73.8072 196.63C76.2734 196.63 78.5576 197.206 80.6599 198.359C82.7824 199.511 84.531 201.057 85.9055 202.998L80.2657 206.06C79.4167 205.05 78.4262 204.281 77.2942 203.756C76.1622 203.21 74.9999 202.937 73.8072 202.937C72.1497 202.937 70.6437 203.392 69.2893 204.302C67.9552 205.191 66.8939 206.374 66.1056 207.849C65.3374 209.305 64.9534 210.902 64.9534 212.64C64.9534 214.358 65.3475 215.955 66.1359 217.431C66.9243 218.886 67.9855 220.059 69.3197 220.948C70.674 221.838 72.1699 222.282 73.8072 222.282C75.0605 222.282 76.2532 221.999 77.3852 221.433C78.5172 220.867 79.4774 220.119 80.2657 219.189ZM88.6127 197.479H94.9196V227.801H88.6127V197.479ZM91.8268 193.083C90.8565 193.083 90.0479 192.769 89.401 192.143C88.7542 191.516 88.4307 190.728 88.4307 189.778C88.4307 188.848 88.7542 188.069 89.401 187.443C90.0479 186.796 90.8464 186.473 91.7964 186.473C92.7263 186.473 93.5147 186.796 94.1615 187.443C94.8084 188.069 95.1318 188.848 95.1318 189.778C95.1318 190.728 94.8084 191.516 94.1615 192.143C93.5349 192.769 92.7566 193.083 91.8268 193.083ZM123.443 182.318H129.75V227.801H123.443V223.344C122.452 224.92 121.158 226.194 119.561 227.164C117.965 228.114 116.095 228.589 113.952 228.589C111.749 228.589 109.687 228.175 107.766 227.346C105.846 226.517 104.148 225.375 102.672 223.92C101.217 222.444 100.075 220.746 99.2461 218.826C98.4173 216.905 98.0029 214.843 98.0029 212.64C98.0029 210.437 98.4173 208.375 99.2461 206.454C100.075 204.514 101.217 202.816 102.672 201.36C104.148 199.885 105.846 198.733 107.766 197.904C109.687 197.075 111.749 196.661 113.952 196.661C116.095 196.661 117.965 197.146 119.561 198.116C121.158 199.066 122.452 200.319 123.443 201.876V182.318ZM114.013 222.495C115.792 222.495 117.348 222.06 118.682 221.191C120.016 220.301 121.047 219.109 121.775 217.613C122.523 216.117 122.897 214.459 122.897 212.64C122.897 210.801 122.523 209.133 121.775 207.637C121.027 206.141 119.986 204.959 118.652 204.089C117.338 203.2 115.792 202.755 114.013 202.755C112.254 202.755 110.647 203.2 109.192 204.089C107.756 204.979 106.604 206.171 105.735 207.667C104.886 209.163 104.461 210.821 104.461 212.64C104.461 214.48 104.896 216.147 105.765 217.643C106.655 219.119 107.817 220.301 109.252 221.191C110.708 222.06 112.294 222.495 114.013 222.495Z" fill="#8571FF"/>
</g>
<defs>
<clipPath id="clip0_1731_26510">
<rect width="149" height="243.057" fill="white"/>
</clipPath>
</defs>
</svg>
